<?xml version="1.0" encoding="utf-8"?>
<!-- Generator: Adobe Illustrator 18.1.1, SVG Export Plug-In . SVG Version: 6.00 Build 0)  -->
<svg version="1.1" id="Layer_1" xmlns="http://www.w3.org/2000/svg" xmlns:xlink="http://www.w3.org/1999/xlink" x="0px" y="0px"
	 viewBox="0 0 57.4 75.4" enable-background="new 0 0 57.4 75.4" xml:space="preserve">
<path fill-rule="evenodd" clip-rule="evenodd" fill="#FFFFFF" d="M42.5,57.4l0.7-0.5l5.5-11.5v-1.4l-29-43.7l-1-0.2h-0.5l-0.5,0.5
	l-0.2,0.7l0.2,1l24,55L42.5,57.4z"/>
<path fill-rule="evenodd" clip-rule="evenodd" fill="#FFFFFF" d="M50.9,39.8l-0.5-0.2L34.8,1.7V1l0.7-1h1.2l20.4,25.9l0.2,1l-6,12.7
	L50.9,39.8z"/>
<path fill-rule="evenodd" clip-rule="evenodd" fill="#FFFFFF" d="M33.1,75.1l-1.4-2.6L0,1.7V1l0.5-0.7l1-0.2l1,0.5l37.9,61.2v1.7
	l-5.8,11.5l-0.7,0.5L33.1,75.1z"/>
</svg>
